<svg width="24" height="24" viewBox="0 0 24 24" fill="none" xmlns="http://www.w3.org/2000/svg">
<path d="M21 19.5C21 21.1575 17.6415 22.5 13.5 22.5C9.3585 22.5 6 21.1575 6 19.5V18.9555C6.445 19.0725 6.9065 19.171 7.3845 19.251C8.90923 19.4999 10.4584 19.5639 11.9985 19.4415C12.4885 19.4785 12.989 19.498 13.5 19.5C15.7125 19.5 17.7855 19.1445 19.3605 18.5145C19.953 18.2775 20.5155 17.9835 21 17.6235V19.5ZM3 13.1235C3.483 13.4835 4.047 13.7775 4.6395 14.0145C6.2145 14.6445 8.2875 15 10.5 15C11.01 14.999 11.51 14.979 12 14.94C12.496 14.98 12.996 15 13.5 15C14.562 15 15.6195 14.916 16.6155 14.751C17.0935 14.671 17.555 14.5725 18 14.4555V15C18 16.6575 14.6415 18 10.5 18C6.3585 18 3 16.6575 3 15V13.1235ZM21 10.5C21 12.1575 17.6415 13.5 13.5 13.5C9.3585 13.5 6 12.1575 6 10.5V8.6235C6.48 8.9805 7.0425 9.276 7.6395 9.5145C8.52604 9.8559 9.44613 10.1028 10.3845 10.251C11.3805 10.416 12.4395 10.5 13.5 10.5C14.562 10.5 15.6195 10.416 16.6155 10.251C17.5539 10.1028 18.474 9.8559 19.3605 9.5145C19.9575 9.2745 20.52 8.9805 21 8.6235V10.5Z" fill="black"/>
<path d="M13.5 3C17.6415 3 21 4.3425 21 6C21 6.393 20.8065 6.783 20.43 7.149C20.052 7.512 19.5 7.842 18.8025 8.121C18.0166 8.42274 17.2011 8.64094 16.3695 8.772C15.459 8.922 14.484 9 13.5 9C12.516 9 11.5395 8.922 10.6305 8.772C9.79891 8.64094 8.98342 8.42274 8.1975 8.121C7.5 7.842 6.948 7.512 6.57 7.149C6.1935 6.783 6 6.393 6 6C6 4.3425 9.3585 3 13.5 3ZM12 7.5H15V4.5H12V7.5Z" fill="black"/>
</svg>
