<svg width="168" height="80" viewBox="0 0 168 80" fill="none" xmlns="http://www.w3.org/2000/svg">
<path d="M119.189 0.736632C126.866 -0.745417 134.83 0.0166383 142.099 2.95267C149.371 5.88982 155.7 10.9065 160.21 17.4826C164.728 24.0705 167.195 31.9075 167.195 40.0003C167.195 48.093 164.728 55.9296 160.21 62.5174C155.7 69.0935 149.371 74.1102 142.099 77.0473C134.83 79.9834 126.866 80.7454 119.189 79.2634C111.51 77.7811 104.364 74.0999 98.6862 68.5802C98.5692 68.4665 98.4553 68.3487 98.3449 68.2277L92.9587 62.3196L92.969 62.31L57.7723 23.7247C54.3943 20.4974 50.0398 18.2259 45.2103 17.2936C40.3082 16.3474 35.2348 16.8428 30.6576 18.6916C26.0829 20.5393 22.2881 23.6207 19.6751 27.4311C17.0702 31.2298 15.736 35.6032 15.736 40.0003C15.7361 44.3975 17.0702 48.7709 19.6751 52.5695C22.2881 56.3799 26.083 59.4607 30.6576 61.3084C35.2348 63.1572 40.3082 63.6526 45.2103 62.7064C50.0385 61.7743 54.3921 59.504 57.7698 56.278L63.4723 50.0222L63.4729 50.0215L67.1175 46.0227L78.1089 58.0703L74.7409 61.7644L74.7416 61.7651L68.8508 68.2277C68.7403 68.3488 68.626 68.4664 68.5089 68.5802C62.831 74.0999 55.6851 77.781 48.0065 79.2634C40.3287 80.7454 32.3648 79.9833 25.0959 77.0473C17.8244 74.1102 11.4946 69.0935 6.98503 62.5174C2.46742 55.9296 5.59812e-05 48.0931 0 40.0003C4.34841e-06 31.9075 2.46737 24.0705 6.98503 17.4826C11.4946 10.9065 17.8244 5.8898 25.0959 2.95267C32.3648 0.016667 40.3287 -0.745448 48.0065 0.736632C55.6851 2.21895 62.831 5.90014 68.5089 11.4198C68.6259 11.5335 68.7398 11.6513 68.8502 11.7723L74.6314 18.1138L74.6225 18.124L82.4828 26.7253L83.5976 27.948L83.5988 27.946L94.5992 39.9839L94.5851 39.9997L109.429 56.2821C112.806 59.506 117.158 61.7747 121.985 62.7064C126.887 63.6526 131.96 63.1572 136.538 61.3084C141.112 59.4606 144.907 56.3799 147.52 52.5695C150.125 48.7709 151.459 44.3974 151.459 40.0003C151.459 35.6032 150.125 31.2298 147.52 27.4311C144.907 23.6207 141.112 20.5394 136.538 18.6916C131.96 16.8428 126.887 16.3474 121.985 17.2936C117.155 18.2259 112.8 20.4972 109.422 23.7247L103.723 29.9778L103.722 29.9785L99.9668 34.0964L89.0363 21.9817L98.3443 11.7723C98.4548 11.6512 98.5691 11.5336 98.6862 11.4198C104.364 5.90015 111.51 2.21892 119.189 0.736632Z" fill="url(#paint0_radial_1000_4977)"/>
<defs>
<radialGradient id="paint0_radial_1000_4977" cx="0" cy="0" r="1" gradientTransform="matrix(-149.138 -36.3345 75.9369 -308.708 151.936 57.8017)" gradientUnits="userSpaceOnUse">
<stop stop-color="#DBC837"/>
<stop offset="0.346154" stop-color="#D75465"/>
<stop offset="0.514423" stop-color="#B134A9"/>
<stop offset="1" stop-color="#3F15F6"/>
</radialGradient>
</defs>
</svg>
