<svg width="22" height="24" viewBox="0 0 22 24" fill="none" xmlns="http://www.w3.org/2000/svg">
<path d="M10.1436 11.4416L0.0947723 21.9698C0.20762 22.3698 0.410411 22.7386 0.687644 23.0481C0.964877 23.3576 1.30921 23.5997 1.69432 23.7557C2.07944 23.9118 2.49514 23.9777 2.90964 23.9485C3.32415 23.9193 3.72648 23.7957 4.0859 23.5872L15.3928 17.1475L10.1436 11.4416Z" fill="#EA4335"/>
<path d="M20.3048 9.65208L15.4153 6.85146L9.91162 11.6811L15.4377 17.1324L20.29 14.3618C20.7198 14.1368 21.0799 13.7983 21.3311 13.3832C21.5823 12.9681 21.7151 12.4921 21.7151 12.0069C21.7151 11.5217 21.5823 11.0457 21.3311 10.6306C21.0799 10.2155 20.7198 9.87707 20.29 9.65199L20.3048 9.65208Z" fill="#FBBC04"/>
<path d="M0.0947687 1.99184C0.0340643 2.2164 0.00382872 2.4481 0.00487472 2.68071V21.2809C0.00547413 21.5134 0.0356817 21.7449 0.0947687 21.9698L10.4881 11.7112L0.0947687 1.99184Z" fill="#4285F4"/>
<path d="M10.2185 11.9808L15.4153 6.85154L4.12338 0.381885C3.69853 0.133083 3.21533 0.00131666 2.72298 5.20116e-06C1.50119 -0.00236936 0.427041 0.808542 0.0947723 1.98437L10.2185 11.9808Z" fill="#34A853"/>
</svg>
