<svg width="488" height="98" viewBox="0 0 488 98" fill="none" xmlns="http://www.w3.org/2000/svg">
<path d="M119.189 9.73663C126.866 8.25458 134.83 9.01664 142.099 11.9527C149.371 14.8898 155.7 19.9065 160.21 26.4826C164.728 33.0705 167.195 40.9075 167.195 49.0003C167.195 57.093 164.728 64.9296 160.21 71.5174C155.7 78.0935 149.371 83.1102 142.099 86.0473C134.83 88.9834 126.866 89.7454 119.189 88.2634C111.51 86.7811 104.364 83.0999 98.6862 77.5802C98.5692 77.4665 98.4553 77.3487 98.3449 77.2277L92.9587 71.3196L92.969 71.31L57.7723 32.7247C54.3943 29.4974 50.0398 27.2259 45.2103 26.2936C40.3082 25.3474 35.2348 25.8428 30.6576 27.6916C26.0829 29.5393 22.2881 32.6207 19.6751 36.4311C17.0702 40.2298 15.736 44.6032 15.736 49.0003C15.7361 53.3975 17.0702 57.7709 19.6751 61.5695C22.2881 65.3799 26.083 68.4607 30.6576 70.3084C35.2348 72.1572 40.3082 72.6526 45.2103 71.7064C50.0385 70.7743 54.3921 68.504 57.7698 65.278L63.4723 59.0222L63.4729 59.0215L67.1175 55.0227L78.1089 67.0703L74.7409 70.7644L74.7416 70.7651L68.8508 77.2277C68.7403 77.3488 68.626 77.4664 68.5089 77.5802C62.831 83.0999 55.6851 86.781 48.0065 88.2634C40.3287 89.7454 32.3648 88.9833 25.0959 86.0473C17.8244 83.1102 11.4946 78.0935 6.98503 71.5174C2.46742 64.9296 5.59812e-05 57.0931 0 49.0003C4.34841e-06 40.9075 2.46737 33.0705 6.98503 26.4826C11.4946 19.9065 17.8244 14.8898 25.0959 11.9527C32.3648 9.01667 40.3287 8.25455 48.0065 9.73663C55.6851 11.2189 62.831 14.9001 68.5089 20.4198C68.6259 20.5335 68.7398 20.6513 68.8502 20.7723L74.6314 27.1138L74.6225 27.124L82.4828 35.7253L83.5976 36.948L83.5988 36.946L94.5992 48.9839L94.5851 48.9997L109.429 65.2821C112.806 68.506 117.158 70.7747 121.985 71.7064C126.887 72.6526 131.96 72.1572 136.538 70.3084C141.112 68.4606 144.907 65.3799 147.52 61.5695C150.125 57.7709 151.459 53.3974 151.459 49.0003C151.459 44.6032 150.125 40.2298 147.52 36.4311C144.907 32.6207 141.112 29.5394 136.538 27.6916C131.96 25.8428 126.887 25.3474 121.985 26.2936C117.155 27.2259 112.8 29.4972 109.422 32.7247L103.723 38.9778L103.722 38.9785L99.9668 43.0964L89.0363 30.9817L98.3443 20.7723C98.4548 20.6512 98.5691 20.5336 98.6862 20.4198C104.364 14.9002 111.51 11.2189 119.189 9.73663Z" fill="url(#paint0_radial_1000_4978)"/>
<path d="M219.153 68.874C220.505 68.874 221.623 69.316 222.507 70.2C223.443 71.032 223.911 72.124 223.911 73.476C223.911 74.776 223.443 75.868 222.507 76.752C221.623 77.584 220.505 78 219.153 78H193.803C192.451 78 191.307 77.558 190.371 76.674C189.487 75.738 189.045 74.594 189.045 73.242V28.158C189.045 26.806 189.513 25.688 190.449 24.804C191.385 23.868 192.581 23.4 194.037 23.4C195.285 23.4 196.377 23.868 197.313 24.804C198.301 25.688 198.795 26.806 198.795 28.158V70.2L197.079 68.874H219.153ZM270.206 57.174C270.206 61.438 269.244 65.208 267.32 68.484C265.448 71.708 262.9 74.23 259.676 76.05C256.504 77.87 252.942 78.78 248.99 78.78C245.038 78.78 241.45 77.87 238.226 76.05C235.054 74.23 232.506 71.708 230.582 68.484C228.71 65.208 227.774 61.438 227.774 57.174C227.774 52.91 228.71 49.166 230.582 45.942C232.506 42.666 235.054 40.118 238.226 38.298C241.45 36.426 245.038 35.49 248.99 35.49C252.942 35.49 256.504 36.426 259.676 38.298C262.9 40.118 265.448 42.666 267.32 45.942C269.244 49.166 270.206 52.91 270.206 57.174ZM260.846 57.174C260.846 54.522 260.3 52.234 259.208 50.31C258.168 48.334 256.738 46.8 254.918 45.708C253.15 44.616 251.174 44.07 248.99 44.07C246.806 44.07 244.804 44.616 242.984 45.708C241.216 46.8 239.786 48.334 238.694 50.31C237.654 52.234 237.134 54.522 237.134 57.174C237.134 59.774 237.654 62.062 238.694 64.038C239.786 65.962 241.216 67.47 242.984 68.562C244.804 69.654 246.806 70.2 248.99 70.2C251.174 70.2 253.15 69.654 254.918 68.562C256.738 67.47 258.168 65.962 259.208 64.038C260.3 62.062 260.846 59.774 260.846 57.174ZM316.54 57.174C316.54 61.438 315.578 65.208 313.654 68.484C311.782 71.708 309.234 74.23 306.01 76.05C302.838 77.87 299.276 78.78 295.324 78.78C291.372 78.78 287.784 77.87 284.56 76.05C281.388 74.23 278.84 71.708 276.916 68.484C275.044 65.208 274.108 61.438 274.108 57.174C274.108 52.91 275.044 49.166 276.916 45.942C278.84 42.666 281.388 40.118 284.56 38.298C287.784 36.426 291.372 35.49 295.324 35.49C299.276 35.49 302.838 36.426 306.01 38.298C309.234 40.118 311.782 42.666 313.654 45.942C315.578 49.166 316.54 52.91 316.54 57.174ZM307.18 57.174C307.18 54.522 306.634 52.234 305.542 50.31C304.502 48.334 303.072 46.8 301.252 45.708C299.484 44.616 297.508 44.07 295.324 44.07C293.14 44.07 291.138 44.616 289.318 45.708C287.55 46.8 286.12 48.334 285.028 50.31C283.988 52.234 283.468 54.522 283.468 57.174C283.468 59.774 283.988 62.062 285.028 64.038C286.12 65.962 287.55 67.47 289.318 68.562C291.138 69.654 293.14 70.2 295.324 70.2C297.508 70.2 299.484 69.654 301.252 68.562C303.072 67.47 304.502 65.962 305.542 64.038C306.634 62.062 307.18 59.774 307.18 57.174ZM343.998 35.49C347.638 35.49 350.888 36.426 353.748 38.298C356.66 40.118 358.948 42.64 360.612 45.864C362.328 49.088 363.186 52.832 363.186 57.096C363.186 61.36 362.328 65.13 360.612 68.406C358.948 71.63 356.686 74.178 353.826 76.05C351.018 77.87 347.846 78.78 344.31 78.78C342.23 78.78 340.28 78.442 338.46 77.766C336.64 77.09 335.028 76.232 333.624 75.192C332.272 74.152 331.206 73.112 330.426 72.072C329.698 70.98 329.334 70.07 329.334 69.342L331.752 68.328V88.842C331.752 90.194 331.31 91.312 330.426 92.196C329.542 93.132 328.424 93.6 327.072 93.6C325.72 93.6 324.602 93.158 323.718 92.274C322.834 91.39 322.392 90.246 322.392 88.842V41.028C322.392 39.676 322.834 38.558 323.718 37.674C324.602 36.738 325.72 36.27 327.072 36.27C328.424 36.27 329.542 36.738 330.426 37.674C331.31 38.558 331.752 39.676 331.752 41.028V44.85L330.426 44.148C330.426 43.472 330.79 42.666 331.518 41.73C332.246 40.742 333.234 39.78 334.482 38.844C335.73 37.856 337.16 37.05 338.772 36.426C340.436 35.802 342.178 35.49 343.998 35.49ZM342.828 44.07C340.54 44.07 338.538 44.642 336.822 45.786C335.106 46.93 333.754 48.49 332.766 50.466C331.83 52.39 331.362 54.6 331.362 57.096C331.362 59.54 331.83 61.776 332.766 63.804C333.754 65.78 335.106 67.34 336.822 68.484C338.538 69.628 340.54 70.2 342.828 70.2C345.116 70.2 347.092 69.628 348.756 68.484C350.472 67.34 351.798 65.78 352.734 63.804C353.722 61.776 354.216 59.54 354.216 57.096C354.216 54.6 353.722 52.39 352.734 50.466C351.798 48.49 350.472 46.93 348.756 45.786C347.092 44.642 345.116 44.07 342.828 44.07ZM394.866 69.42C396.114 69.42 397.154 69.836 397.986 70.668C398.818 71.448 399.234 72.462 399.234 73.71C399.234 74.906 398.818 75.92 397.986 76.752C397.154 77.584 396.114 78 394.866 78H369.75C368.45 78 367.41 77.532 366.63 76.596C365.85 75.66 365.486 74.724 365.538 73.788C365.59 73.008 365.694 72.332 365.85 71.76C366.006 71.136 366.396 70.434 367.02 69.654L386.442 44.538L386.286 45.63H370.452C369.204 45.63 368.164 45.214 367.332 44.382C366.5 43.55 366.084 42.51 366.084 41.262C366.084 40.066 366.5 39.078 367.332 38.298C368.164 37.466 369.204 37.05 370.452 37.05H394.476C395.672 37.05 396.686 37.492 397.518 38.376C398.35 39.26 398.714 40.378 398.61 41.73C398.558 42.25 398.454 42.77 398.298 43.29C398.194 43.81 397.856 44.434 397.284 45.162L378.174 69.888V69.42H394.866ZM422.604 78.78C418.184 78.78 414.336 77.87 411.06 76.05C407.836 74.178 405.34 71.656 403.572 68.484C401.856 65.312 400.998 61.724 400.998 57.72C400.998 53.04 401.934 49.062 403.806 45.786C405.73 42.458 408.226 39.91 411.294 38.142C414.362 36.374 417.612 35.49 421.044 35.49C423.696 35.49 426.192 36.036 428.532 37.128C430.924 38.22 433.03 39.728 434.85 41.652C436.67 43.524 438.1 45.708 439.14 48.204C440.232 50.7 440.778 53.352 440.778 56.16C440.726 57.408 440.232 58.422 439.296 59.202C438.36 59.982 437.268 60.372 436.02 60.372H406.224L403.884 52.572H432.51L430.794 54.132V52.026C430.69 50.518 430.144 49.166 429.156 47.97C428.22 46.774 427.024 45.838 425.568 45.162C424.164 44.434 422.656 44.07 421.044 44.07C419.484 44.07 418.028 44.278 416.676 44.694C415.324 45.11 414.154 45.812 413.166 46.8C412.178 47.788 411.398 49.114 410.826 50.778C410.254 52.442 409.968 54.548 409.968 57.096C409.968 59.904 410.54 62.296 411.684 64.272C412.88 66.196 414.388 67.678 416.208 68.718C418.08 69.706 420.056 70.2 422.136 70.2C424.06 70.2 425.594 70.044 426.738 69.732C427.882 69.42 428.792 69.056 429.468 68.64C430.196 68.172 430.846 67.782 431.418 67.47C432.354 67.002 433.238 66.768 434.07 66.768C435.214 66.768 436.15 67.158 436.878 67.938C437.658 68.718 438.048 69.628 438.048 70.668C438.048 72.072 437.32 73.346 435.864 74.49C434.512 75.634 432.614 76.648 430.17 77.532C427.726 78.364 425.204 78.78 422.604 78.78ZM477.201 36.27C478.553 36.27 479.671 36.738 480.555 37.674C481.439 38.558 481.881 39.676 481.881 41.028V74.178C481.881 78.962 480.971 82.758 479.151 85.566C477.383 88.426 474.991 90.48 471.975 91.728C468.959 92.976 465.579 93.6 461.835 93.6C460.171 93.6 458.403 93.47 456.531 93.21C454.659 92.95 453.125 92.56 451.929 92.04C450.369 91.364 449.277 90.506 448.653 89.466C448.081 88.478 447.977 87.412 448.341 86.268C448.809 84.76 449.563 83.72 450.603 83.148C451.643 82.628 452.735 82.576 453.879 82.992C454.711 83.252 455.803 83.642 457.155 84.162C458.507 84.734 460.067 85.02 461.835 85.02C464.227 85.02 466.203 84.682 467.763 84.006C469.375 83.382 470.571 82.29 471.351 80.73C472.183 79.222 472.599 77.142 472.599 74.49V69.264L474.237 71.136C473.353 72.852 472.235 74.282 470.883 75.426C469.583 76.518 468.023 77.35 466.203 77.922C464.383 78.494 462.303 78.78 459.963 78.78C457.207 78.78 454.789 78.156 452.709 76.908C450.681 75.608 449.095 73.84 447.951 71.604C446.807 69.316 446.235 66.716 446.235 63.804V41.028C446.235 39.676 446.677 38.558 447.561 37.674C448.445 36.738 449.563 36.27 450.915 36.27C452.267 36.27 453.385 36.738 454.269 37.674C455.153 38.558 455.595 39.676 455.595 41.028V60.996C455.595 64.376 456.323 66.768 457.779 68.172C459.287 69.524 461.367 70.2 464.019 70.2C465.839 70.2 467.373 69.862 468.621 69.186C469.869 68.458 470.831 67.418 471.507 66.066C472.183 64.662 472.521 62.972 472.521 60.996V41.028C472.521 39.676 472.963 38.558 473.847 37.674C474.731 36.738 475.849 36.27 477.201 36.27Z" fill="white"/>
<defs>
<radialGradient id="paint0_radial_1000_4978" cx="0" cy="0" r="1" gradientTransform="matrix(-149.138 -36.3345 75.9369 -308.708 151.936 66.8017)" gradientUnits="userSpaceOnUse">
<stop stop-color="#DBC837"/>
<stop offset="0.346154" stop-color="#D75465"/>
<stop offset="0.514423" stop-color="#B134A9"/>
<stop offset="1" stop-color="#3F15F6"/>
</radialGradient>
</defs>
</svg>
