<svg width="24" height="24" viewBox="0 0 24 24" fill="none" xmlns="http://www.w3.org/2000/svg">
<path fill-rule="evenodd" clip-rule="evenodd" d="M7.2 1.23864e-07C6.13913 1.23864e-07 5.12172 0.421427 4.37157 1.17157C3.62143 1.92172 3.2 2.93913 3.2 4V4.4576C3.2 5.1744 3.4128 5.8416 3.7792 6.4H2.4C1.76348 6.4 1.15303 6.65286 0.702944 7.10294C0.252856 7.55303 0 8.16348 0 8.8L0 10.4C0 11.0365 0.252856 11.647 0.702944 12.0971C1.15303 12.5471 1.76348 12.8 2.4 12.8H11.2V6.4H12.8V12.8H21.6C22.2365 12.8 22.847 12.5471 23.2971 12.0971C23.7471 11.647 24 11.0365 24 10.4V8.8C24 8.16348 23.7471 7.55303 23.2971 7.10294C22.847 6.65286 22.2365 6.4 21.6 6.4H20.2208C20.5872 5.8416 20.8 5.1744 20.8 4.4576V4C20.8 2.93913 20.3786 1.92172 19.6284 1.17157C18.8783 0.421427 17.8609 1.23864e-07 16.8 1.23864e-07C14.7632 1.23864e-07 12.9792 1.088 12 2.7136C11.502 1.88563 10.7982 1.20059 9.95713 0.72509C9.11603 0.249588 8.16621 -0.000203067 7.2 1.23864e-07ZM12.8 6.4H17.2576C18.3296 6.4 19.2 5.5296 19.2 4.4576V4C19.2 3.36348 18.9471 2.75303 18.4971 2.30294C18.047 1.85286 17.4365 1.6 16.8 1.6C15.7391 1.6 14.7217 2.02143 13.9716 2.77157C13.2214 3.52172 12.8 4.53913 12.8 5.6V6.4ZM11.2 6.4H6.7424C5.6704 6.4 4.8 5.5296 4.8 4.4576V4C4.8 3.36348 5.05286 2.75303 5.50294 2.30294C5.95303 1.85286 6.56348 1.6 7.2 1.6C7.72529 1.6 8.24543 1.70346 8.73073 1.90448C9.21604 2.1055 9.65699 2.40014 10.0284 2.77157C10.3999 3.14301 10.6945 3.58396 10.8955 4.06927C11.0965 4.55457 11.2 5.07471 11.2 5.6V6.4Z" fill="black"/>
<path d="M11.2 14.4H1.60001V20C1.60001 21.0609 2.02143 22.0783 2.77158 22.8284C3.52172 23.5786 4.53914 24 5.60001 24H11.2V14.4ZM12.8 24H18.4C19.4609 24 20.4783 23.5786 21.2284 22.8284C21.9786 22.0783 22.4 21.0609 22.4 20V14.4H12.8V24Z" fill="black"/>
</svg>
